<?xml version="1.0" encoding="utf-8"?>
<!-- Generator: Adobe Illustrator 16.0.0, SVG Export Plug-In . SVG Version: 6.00 Build 0)  -->
<!DOCTYPE svg PUBLIC "-//W3C//DTD SVG 1.1//EN" "http://www.w3.org/Graphics/SVG/1.1/DTD/svg11.dtd">
<svg version="1.1" id="Layer_1" xmlns="http://www.w3.org/2000/svg" xmlns:xlink="http://www.w3.org/1999/xlink" x="0px" y="0px"
	 width="457px" height="78px" viewBox="0 0 457 78" enable-background="new 0 0 457 78" xml:space="preserve">
<g>
	<path fill="#0D1B0F" d="M231.354-454.979c1.072,0,2.097,0.008,3.06,0.022c0.043,0.001,0.102,0.001,0.145,0.001
		c0.03,0,3.041,0.015,8.17,0.447v0c0.012,0.001,0.023,0.002,0.035,0.003c16.387,1.385,58.527,7.452,96.396,33.814
		c46.53,32.392,71.262,84.021,73.508,153.451c0.153,4.74,3.327,8.849,7.875,10.193c0.124,0.037,12.792,3.994,25.926,15.45
		c17.951,15.657,27.967,37.116,29.771,63.783v70.646c-0.134,1.875-1.635,19.108-11.807,36.663
		C450.059-45.697,425.656-31.75,391.9-29.044c-1.492-0.149-6.158-0.774-10.833-3.002c-6.744-3.214-10.188-8.061-10.811-15.234
		v-240.898c0-0.511-0.035-1.021-0.106-1.526c-0.165-1.181-4.257-29.247-22.279-58.321c-16.883-27.238-49.512-60.479-109.076-64.164
		c-0.039-0.002-0.077-0.004-0.116-0.006c-1.486-0.076-3.48-0.113-6.096-0.113c-3.229,0-6.509,0.058-8.177,0.092l-0.067,0.001
		c-0.165,0.002-0.331,0.009-0.496,0.019c-59.607,3.654-92.259,36.9-109.154,64.146c-18.034,29.083-22.128,57.166-22.293,58.347
		c-0.071,0.506-0.106,1.016-0.106,1.526V-47.28c-0.608,7.002-3.895,11.772-10.321,14.995c-4.794,2.404-9.729,3.077-11.34,3.24
		c-33.403-2.682-57.654-16.383-72.088-40.73c-10.582-17.851-12.1-35.504-12.235-37.395v-70.645
		c1.78-26.303,11.561-47.554,29.073-63.167c13.101-11.68,26.021-15.874,26.65-16.073c4.583-1.32,7.694-5.416,7.849-10.186
		c2.246-69.432,26.979-121.061,73.51-153.452c37.854-26.351,79.974-32.423,96.375-33.812c0.016-0.001,0.031-0.002,0.047-0.004
		c5.133-0.433,8.147-0.448,8.161-0.448c0.048,0,0.097,0,0.146-0.001C229.233-454.971,230.316-454.979,231.354-454.979
		 M231.354-465.979c-1.086,0-2.219,0.008-3.387,0.023c0,0-3.324,0.001-9.082,0.487c0,0-0.001,0-0.001,0
		c-36.966,3.119-174.448,26.252-180,197.873c0,0-58.906,17.417-63.578,89.417v71.333c0,0,3.662,82,95.328,88.833
		c0,0,30.653-1.332,32.656-28.834v-241.333c0,0,14.92-106.521,121.227-113.039v0.001c0,0,4.073-0.093,8.067-0.093
		c2.053,0,4.084,0.024,5.532,0.099c106.228,6.57,121.141,113.032,121.141,113.032v241.333c2.003,27.502,32.656,28.834,32.656,28.834
		c91.666-6.834,95.328-88.833,95.328-88.833v-71.333c-4.672-72-63.578-89.417-63.578-89.417
		c-5.552-171.617-143.028-194.753-179.998-197.873c0,0-0.009,0-0.012-0.001c-5.754-0.485-9.074-0.486-9.074-0.486
		C233.564-465.97,232.484-465.979,231.354-465.979L231.354-465.979z"/>
</g>
<g>
	<path fill="#FFFFFF" d="M19.755,8.588h23.69c9.433,0,21.314,5.904,20.45,22.682C63.031,48.407,52.302,60,34.444,60H9.026
		L19.755,8.588z M27.675,46.823h7.633c10.369,0,12.745-10.729,12.745-15.481c0-7.705-3.96-9.577-9.289-9.577h-5.833L27.675,46.823z"
		/>
	<path fill="#FFFFFF" d="M104.429,43.583c-2.16,11.809-8.568,17.641-21.169,17.641c-12.961,0-16.922-6.984-16.922-13.465
		c0-2.448,0.504-6.48,1.296-9.36h14.185c-0.288,1.872-1.224,5.112-1.224,6.984c0,2.232,1.224,3.601,3.384,3.601
		c2.809,0,3.816-1.585,4.32-4.177l7.705-36.219h15.841L104.429,43.583z"/>
	<path fill="#FFFFFF" d="M141.074,31.413h-5.904l1.944-8.784h5.761c2.232-11.018,6.121-14.041,17.281-14.041
		c2.521,0,4.969,0.216,7.489,0.359l-2.016,9.434c-0.936-0.145-2.16-0.217-3.816-0.217c-2.808,0-3.96,1.08-4.68,4.465h7.272
		l-1.872,8.784h-7.201L149.427,60H135.17L141.074,31.413z"/>
	<path fill="#FFFFFF" d="M186.075,21.692c10.945,0,18.146,5.041,18.146,16.346c0,9.577-5.329,22.898-22.538,22.898
		c-10.297,0-18.649-4.969-18.649-17.498C163.033,31.485,170.81,21.692,186.075,21.692z M182.331,50.567
		c5.617,0,7.633-8.281,7.633-11.521c0-4.464-1.152-6.984-4.968-6.984c-5.688,0-7.705,8.568-7.705,12.457
		C177.29,47.543,178.298,50.567,182.331,50.567z"/>
	<path fill="#FFFFFF" d="M214.081,22.629h13.825l-1.224,5.832h0.144c2.52-3.96,7.201-6.769,10.873-6.769
		c2.376,0,3.745,0.145,5.041,0.576l-2.664,12.602c-1.728-0.648-3.672-0.937-5.473-0.937c-6.048,0-9.073,2.593-10.729,10.441
		L220.633,60h-14.257L214.081,22.629z"/>
	<path fill="#FFFFFF" d="M260.881,62.305c-3.168,6.192-5.4,9.792-18.29,9.792c-2.232,0-4.392-0.144-6.625-0.359l2.16-11.233
		c1.152,0.072,2.376,0.216,3.528,0.216c3.024,0,5.185-0.144,5.185-3.744l-6.625-34.347h14.401l2.448,22.394h0.144l9.577-22.394
		h14.833L260.881,62.305z"/>
	<path fill="#FFFFFF" d="M291.264,40.055l-8.496-17.426h14.4l3.025,7.921l5.328-7.921h15.553l-14.905,18.146L315.602,60h-14.4
		l-4.105-9.145L290.184,60h-15.697L291.264,40.055z"/>
	<path fill="#FFFFFF" d="M331.296,40.055l-8.497-17.426h14.402l3.023,7.921l5.328-7.921h15.555l-14.906,18.146L355.635,60h-14.402
		l-4.104-9.145L330.216,60h-15.697L331.296,40.055z"/>
	<path fill="#FFFFFF" d="M366.215,22.629h13.754l-1.08,4.752h0.145c2.735-3.384,7.057-5.688,11.592-5.688
		c6.553,0,12.17,2.736,12.17,10.081c0,1.656-0.433,4.393-1.008,7.129L397.25,60h-14.258l3.673-17.138
		c0.433-2.16,1.152-4.681,1.152-6.192c0-2.376-1.728-3.601-4.032-3.601c-4.537,0-6.049,3.24-6.912,7.129L372.695,60h-14.256
		L366.215,22.629z"/>
	<path fill="#FFFFFF" d="M444.05,53.52c-2.16,10.513-4.104,19.514-22.178,19.514c-4.393,0-17.786-0.504-17.282-12.457h14.113
		c0,1.44,0.36,2.448,1.152,3.24c0.721,0.576,1.873,0.792,3.313,0.792c4.32,0,5.4-3.313,6.121-6.625l0.863-3.96h-0.144
		c-2.16,2.448-5.473,3.744-8.929,3.744c-8.929,0-14.617-5.688-14.617-14.545c0-10.657,6.336-21.53,18.002-21.53
		c4.607,0,8.855,1.368,11.088,5.761h0.145l0.936-4.824h13.754L444.05,53.52z M420.72,42.646c0,3.313,1.656,5.977,4.896,5.977
		c6.769,0,7.921-8.209,7.921-10.729c0-2.305-0.217-5.833-5.328-5.833C422.592,32.062,420.72,38.254,420.72,42.646z"/>
</g>
</svg>
