<?xml version="1.0" encoding="utf-8"?>
<!-- Generator: Adobe Illustrator 16.0.0, SVG Export Plug-In . SVG Version: 6.00 Build 0)  -->
<!DOCTYPE svg PUBLIC "-//W3C//DTD SVG 1.1//EN" "http://www.w3.org/Graphics/SVG/1.1/DTD/svg11.dtd">
<svg version="1.1" id="Layer_1" xmlns="http://www.w3.org/2000/svg" xmlns:xlink="http://www.w3.org/1999/xlink" x="0px" y="0px"
	 width="524px" height="461px" viewBox="0 0 524 461" enable-background="new 0 0 524 461" xml:space="preserve">
<g>
	<path fill="#FFFFFF" d="M262.357,19.021c1.071,0,2.095,0.008,3.057,0.022c0.043,0.001,0.103,0.001,0.146,0.001
		c0.029,0,3.036,0.015,8.159,0.446c0.021,0.001,0.04,0.003,0.061,0.005c16.397,1.388,58.524,7.459,96.382,33.813
		c46.53,32.392,71.262,84.021,73.508,153.451c0.153,4.74,3.327,8.849,7.875,10.193c0.124,0.037,12.792,3.994,25.926,15.449
		c17.951,15.657,27.967,37.116,29.771,63.782v70.646c-0.134,1.875-1.635,19.108-11.807,36.663
		c-14.373,24.805-38.77,38.752-72.517,41.461c-1.61-0.164-6.546-0.836-11.34-3.24c-6.426-3.223-9.714-7.994-10.321-14.994V185.821
		c0-0.511-0.035-1.021-0.106-1.526c-0.165-1.181-4.257-29.247-22.279-58.321c-16.883-27.238-49.512-60.479-109.076-64.164
		c-0.038-0.002-0.077-0.004-0.115-0.006c-1.486-0.076-3.479-0.113-6.094-0.113c-3.229,0-6.51,0.058-8.179,0.092l-0.085,0.002l0,0
		c-0.159,0.002-0.318,0.009-0.478,0.019c-59.607,3.654-92.259,36.9-109.154,64.146c-18.034,29.083-22.128,57.165-22.293,58.346
		c-0.071,0.505-0.106,1.016-0.106,1.526v240.899c-0.608,7-3.895,11.771-10.322,14.994c-4.793,2.404-9.729,3.076-11.339,3.24
		c-33.404-2.682-57.654-16.383-72.088-40.73c-10.582-17.851-12.1-35.504-12.235-37.395v-70.645
		c1.78-26.302,11.561-47.554,29.073-63.167c13.1-11.679,26.019-15.873,26.65-16.073c4.583-1.32,7.695-5.416,7.849-10.186
		c2.246-69.432,26.979-121.061,73.51-153.452c37.854-26.351,79.974-32.423,96.375-33.812c0.016-0.001,0.031-0.002,0.047-0.004
		c5.133-0.433,8.147-0.448,8.161-0.448c0.048,0,0.097,0,0.146-0.001C260.234,19.029,261.317,19.021,262.357,19.021 M262.357,8.021
		c-1.087,0-2.221,0.008-3.39,0.023c0,0-3.324,0.001-9.082,0.487c0,0-0.001,0-0.001,0c-36.966,3.119-174.448,26.252-180,197.873
		c0,0-58.906,17.417-63.578,89.417v71.333c0,0,3.662,82,95.328,88.833c0,0,30.653-1.332,32.656-28.834V185.821
		c0,0,14.92-106.521,121.227-113.039v0.001c0,0,4.074-0.093,8.069-0.093c2.052,0,4.083,0.024,5.531,0.099
		c106.228,6.57,121.141,113.032,121.141,113.032v241.333c2.003,27.502,32.656,28.834,32.656,28.834
		c91.666-6.834,95.328-88.833,95.328-88.833v-71.333c-4.672-72-63.578-89.417-63.578-89.417
		C449.111,34.788,311.635,11.651,274.665,8.532c0,0-0.009,0-0.012-0.001c-5.754-0.485-9.074-0.486-9.074-0.486
		C264.564,8.03,263.486,8.021,262.357,8.021L262.357,8.021z"/>
</g>
</svg>
